Coordinates
version=1
nRows=16
nColumns=38
inDegrees=no

Units are S.I. units (second, meters, Newtons, ...)
If the header above contains a line with 'inDegrees', this indicates whether rotational values are in degrees (yes) or radians (no).

endheader
time	pelvis_tilt	pelvis_list	pelvis_rotation	pelvis_tx	pelvis_ty	pelvis_tz	hip_flexion_r	hip_adduction_r	hip_rotation_r	knee_angle_r	ankle_angle_r	subtalar_angle_r	mtp_angle_r	hip_flexion_l	hip_adduction_l	hip_rotation_l	knee_angle_l	ankle_angle_l	subtalar_angle_l	mtp_angle_l	lumbar_extension	lumbar_bending	lumbar_rotation	arm_flex_r	arm_add_r	arm_rot_r	elbow_flex_r	pro_sup_r	wrist_flex_r	wrist_dev_r	arm_flex_l	arm_add_l	arm_rot_l	elbow_flex_l	pro_sup_l	wrist_flex_l	wrist_dev_l
0	0.91717	1.521	-2.48145	0.914645	0.968995	1.05001	0.502786	-0.100321	-0.0324721	1.02038	-0.164492	0	0	-0.100372	0.0653193	-0.282296	0.352764	-0.115211	0	0	-0.0914565	-0.00341496	-0.0439075	-0.244818	-0.253946	-0.299057	0.467563	0.351832	0	0	-0.0191856	-0.800023	0.818446	0.814771	0.846494	0	0
0.01	0.970042	1.52458	-2.53474	0.914934	0.959521	1.04893	0.509519	-0.097387	-0.0283065	0.968965	-0.156045	0	0	-0.108433	0.0649039	-0.279948	0.347097	-0.112883	0	0	-0.0840627	-0.00143361	-0.0408327	-0.24818	-0.256537	-0.28997	0.471702	0.338311	0	0	-0.00426895	-0.805404	0.821181	0.818849	0.850859	0	0
0.02	1.05587	1.52842	-2.62045	0.915195	0.949873	1.04761	0.516001	-0.0962058	-0.0282553	0.915383	-0.148197	0	0	-0.11442	0.0639896	-0.279556	0.34411	-0.110198	0	0	-0.0776819	0.000746979	-0.0413436	-0.249674	-0.25883	-0.283289	0.476814	0.327894	0	0	0.00545418	-0.810778	0.818001	0.824274	0.856541	0	0
0.03	1.17386	1.53192	-2.73785	0.915412	0.940107	1.04611	0.521655	-0.0961429	-0.0313629	0.859374	-0.14016	0	0	-0.119459	0.0632704	-0.278948	0.342091	-0.106261	0	0	-0.0711218	0.00268852	-0.0430643	-0.250735	-0.26157	-0.274669	0.481753	0.316266	0	0	0.0121457	-0.815259	0.809847	0.829134	0.866283	0	0
0.04	1.31215	1.53456	-2.87497	0.915591	0.93025	1.04452	0.526137	-0.0968976	-0.0379497	0.801671	-0.13368	0	0	-0.124142	0.0625965	-0.278135	0.341334	-0.101583	0	0	-0.0648139	0.00427584	-0.0454075	-0.251553	-0.264644	-0.263956	0.486287	0.304808	0	0	0.0178094	-0.818928	0.799987	0.833247	0.879119	0	0
0.05	1.46937	1.53599	-3.03048	0.915686	0.920293	1.04281	0.530416	-0.0982416	-0.0481701	0.744661	-0.128097	0	0	-0.128683	0.0621035	-0.276671	0.341296	-0.0970221	0	0	-0.0585543	0.00527706	-0.0479371	-0.252274	-0.266762	-0.255965	0.490461	0.296917	0	0	0.0245106	-0.823158	0.794147	0.837078	0.889448	0	0
0.06	1.63189	1.53596	3.09242	0.915716	0.910309	1.04101	0.534664	-0.0999787	-0.0617358	0.689335	-0.122059	0	0	-0.133087	0.0619537	-0.27391	0.341829	-0.0923118	0	0	-0.0527105	0.00560989	-0.0504701	-0.252961	-0.268343	-0.249115	0.494509	0.289674	0	0	0.0322474	-0.827198	0.790691	0.840397	0.899509	0	0
0.07	1.81067	1.53439	2.91584	0.915682	0.900238	1.03904	0.539717	-0.101852	-0.0765141	0.636076	-0.115845	0	0	-0.136454	0.0621641	-0.270512	0.342768	-0.0878622	0	0	-0.0458518	0.00541173	-0.0523885	-0.253888	-0.269633	-0.243005	0.497876	0.283618	0	0	0.0405078	-0.830922	0.789522	0.843085	0.908791	0	0
0.08	1.97534	1.53159	2.75366	0.915578	0.890151	1.03699	0.544649	-0.103615	-0.0911646	0.586064	-0.110041	0	0	-0.139105	0.0622712	-0.26645	0.344788	-0.0834913	0	0	-0.038823	0.00507932	-0.0541702	-0.254662	-0.270662	-0.237351	0.500458	0.278996	0	0	0.0491841	-0.834373	0.79014	0.845245	0.916534	0	0
0.09	2.11332	1.52804	2.61832	0.915375	0.879992	1.03492	0.548648	-0.104475	-0.104656	0.539803	-0.105192	0	0	-0.141633	0.0620318	-0.263096	0.347785	-0.0793561	0	0	-0.0320213	0.0047645	-0.0558566	-0.255548	-0.271352	-0.232661	0.502911	0.274678	0	0	0.0577641	-0.837544	0.791974	0.84699	0.9223	0	0
0.1	2.24232	1.52335	2.491	0.914914	0.869606	1.03276	0.553576	-0.104156	-0.114093	0.499678	-0.101563	0	0	-0.143406	0.0613792	-0.262634	0.351399	-0.0753577	0	0	-0.0239536	0.00444976	-0.0567583	-0.256289	-0.271698	-0.228821	0.504058	0.272311	0	0	0.0649928	-0.840333	0.794476	0.848205	0.926065	0	0
0.11	2.34487	1.51887	2.39068	0.914398	0.85917	1.03074	0.558032	-0.103156	-0.120169	0.467173	-0.0989466	0	0	-0.145638	0.059862	-0.262246	0.355524	-0.0715379	0	0	-0.0167235	0.00479235	-0.0583108	-0.256008	-0.272136	-0.224347	0.503643	0.271278	0	0	0.0719185	-0.842231	0.797499	0.848328	0.929512	0	0
0.12	2.42176	1.51538	2.31688	0.913886	0.848708	1.02897	0.561232	-0.101417	-0.123309	0.443177	-0.0957794	0	0	-0.14895	0.0574387	-0.261211	0.359895	-0.0687224	0	0	-0.0113152	0.00577207	-0.0607355	-0.254687	-0.272447	-0.22007	0.502075	0.27079	0	0	0.0788391	-0.843289	0.800929	0.847456	0.93286	0	0
0.13	2.48085	1.51329	2.2613	0.913335	0.838201	1.02748	0.562578	-0.0984482	-0.123696	0.426627	-0.091492	0	0	-0.153644	0.0540851	-0.259658	0.364513	-0.0670779	0	0	-0.00809428	0.00755241	-0.0635733	-0.252677	-0.272583	-0.216684	0.500259	0.270297	0	0	0.0853618	-0.8435	0.80418	0.845756	0.936058	0	0
0.14	2.52126	1.51289	2.22452	0.912747	0.827571	1.02627	0.562564	-0.0948146	-0.122957	0.419657	-0.0868378	0	0	-0.160379	0.0500011	-0.258129	0.369336	-0.0663648	0	0	-0.00766817	0.0100299	-0.066688	-0.250653	-0.272716	-0.214145	0.49971	0.270392	0	0	0.0907471	-0.843311	0.806426	0.844211	0.938368	0	0
0.15	2.54677	1.51471	2.20305	0.912166	0.816808	1.02535	0.560218	-0.0906398	-0.123169	0.42052	-0.0826282	0	0	-0.169369	0.0449506	-0.256177	0.374545	-0.0661738	0	0	-0.0102242	0.0133915	-0.070186	-0.248502	-0.272841	-0.21252	0.499851	0.270203	0	0	0.0953332	-0.842542	0.807863	0.842762	0.940727	0	0
